<svg width="237" height="133" viewBox="0 0 237 133" fill="none" xmlns="http://www.w3.org/2000/svg">
<path d="M29.5 132.5L157.44 93H227L97.8176 132.5H29.5Z" fill="#FEB700"/>
<path d="M237 0H13.2031L0 93H224.733L237 0Z" fill="#FEB700"/>
<path d="M63.1 64.35C59.6 64.35 56.7167 63.5667 54.45 62C52.2167 60.4 51.1 58.1667 51.1 55.3C51.1 55 51.1333 54.55 51.2 53.95H58.35C58.2167 55.35 58.5833 56.5 59.45 57.4C60.35 58.3 61.65 58.75 63.35 58.75C65.05 58.75 66.3833 58.4 67.35 57.7C68.35 56.9667 68.85 55.9333 68.85 54.6C68.85 53.3667 68.3333 52.3833 67.3 51.65C66.3 50.9167 64.7167 50.1 62.55 49.2C60.55 48.3667 58.9167 47.6 57.65 46.9C56.4167 46.2 55.35 45.2333 54.45 44C53.5833 42.7333 53.15 41.15 53.15 39.25C53.15 37.0833 53.7 35.2 54.8 33.6C55.9333 32 57.4667 30.7667 59.4 29.9C61.3667 29.0333 63.6 28.6 66.1 28.6C68.5667 28.6 70.7 29.0167 72.5 29.85C74.3333 30.65 75.7 31.8 76.6 33.3C77.5333 34.8 77.9333 36.55 77.8 38.55H70.35L70.4 38C70.4 36.9 69.9833 36 69.15 35.3C68.35 34.6 67.2167 34.25 65.75 34.25C64.1833 34.25 62.9167 34.6167 61.95 35.35C60.9833 36.0833 60.5 37.0833 60.5 38.35C60.5 39.1833 60.7667 39.9167 61.3 40.55C61.8667 41.15 62.55 41.6833 63.35 42.15C64.15 42.5833 65.3 43.15 66.8 43.85C68.7667 44.7167 70.3833 45.5333 71.65 46.3C72.9167 47.0667 74 48.0833 74.9 49.35C75.8 50.6167 76.25 52.1667 76.25 54C76.25 56 75.7 57.7833 74.6 59.35C73.5333 60.9167 72 62.15 70 63.05C68.0333 63.9167 65.7333 64.35 63.1 64.35ZM97.4676 35.85C101.001 35.85 103.801 36.8333 105.868 38.8C107.934 40.7333 108.968 43.35 108.968 46.65C108.968 47.7167 108.884 48.6667 108.718 49.5C108.518 50.5 108.301 51.3667 108.068 52.1H87.8176C87.7842 52.3333 87.7676 52.6667 87.7676 53.1C87.7676 54.8333 88.2676 56.2 89.2676 57.2C90.3009 58.1667 91.6509 58.65 93.3176 58.65C94.7176 58.65 95.9176 58.35 96.9176 57.75C97.9509 57.1167 98.7842 56.3 99.4176 55.3H106.968C105.734 57.9667 103.818 60.1667 101.218 61.9C98.6509 63.6 95.7342 64.45 92.4676 64.45C88.9342 64.45 86.1009 63.45 83.9676 61.45C81.8342 59.45 80.7676 56.7333 80.7676 53.3C80.7676 52.3 80.8676 51.25 81.0676 50.15C81.5676 47.2833 82.5842 44.7667 84.1176 42.6C85.6842 40.4333 87.6176 38.7667 89.9176 37.6C92.2176 36.4333 94.7342 35.85 97.4676 35.85ZM101.768 47.85C101.834 47.3167 101.868 46.9333 101.868 46.7C101.868 45.1 101.351 43.85 100.318 42.95C99.2842 42.05 97.9342 41.6 96.2676 41.6C94.5009 41.6 92.9176 42.1667 91.5176 43.3C90.1176 44.4 89.1342 45.9167 88.5676 47.85H101.768ZM124.827 27L118.277 64H111.227L117.777 27H124.827ZM145.443 35.9C148.31 35.9 150.56 36.6833 152.193 38.25C153.86 39.7833 154.693 41.9833 154.693 44.85C154.693 45.9167 154.61 46.8833 154.443 47.75L151.543 64H144.593L147.293 48.7C147.393 48.1 147.443 47.5167 147.443 46.95C147.443 45.2833 146.993 44.0167 146.093 43.15C145.226 42.2833 143.976 41.85 142.343 41.85C140.476 41.85 138.876 42.4167 137.543 43.55C136.243 44.65 135.376 46.25 134.943 48.35L132.193 64H125.143L130.043 36.3H137.093L136.493 39.7C137.626 38.5333 138.976 37.6167 140.543 36.95C142.11 36.25 143.743 35.9 145.443 35.9ZM167.75 36.3L171.45 55.65L182.2 36.3H189.65L165.3 77.1H157.85L166.25 63.3L159.9 36.3H167.75Z" fill="black"/>
<path d="M54.45 62L53.2852 63.6258L53.299 63.6357L53.3128 63.6453L54.45 62ZM51.2 53.95V51.95H49.4099L49.2122 53.7291L51.2 53.95ZM58.35 53.95L60.341 54.1396L60.5495 51.95H58.35V53.95ZM59.45 57.4L58.0094 58.7873L58.0224 58.8009L58.0358 58.8142L59.45 57.4ZM67.35 57.7L68.523 59.3199L68.5327 59.3128L67.35 57.7ZM67.3 51.65L66.1173 53.2628L66.1298 53.272L66.1425 53.281L67.3 51.65ZM62.55 49.2L61.7808 51.0462L61.7828 51.047L62.55 49.2ZM57.65 46.9L56.6628 48.6394L56.6727 48.645L56.6826 48.6505L57.65 46.9ZM54.45 44L52.7994 45.1294L52.8165 45.1544L52.8344 45.1789L54.45 44ZM54.8 33.6L53.168 32.444L53.1599 32.4554L53.1519 32.4669L54.8 33.6ZM59.4 29.9L58.5935 28.0698L58.5819 28.075L59.4 29.9ZM72.5 29.85L71.6598 31.6649L71.6798 31.6742L71.7001 31.6831L72.5 29.85ZM76.6 33.3L74.885 34.329L74.8933 34.3429L74.9019 34.3566L76.6 33.3ZM77.8 38.55V40.55H79.6711L79.7956 38.683L77.8 38.55ZM70.35 38.55L68.3582 38.3689L68.1599 40.55H70.35V38.55ZM70.4 38L72.3918 38.1811L72.4 38.0907V38H70.4ZM69.15 35.3L67.833 36.8052L67.8482 36.8184L67.8636 36.8314L69.15 35.3ZM61.95 35.35L60.7412 33.7566H60.7412L61.95 35.35ZM61.3 40.55L59.7702 41.8383L59.8069 41.8818L59.846 41.9232L61.3 40.55ZM63.35 42.15L62.3423 43.8776L62.3696 43.8935L62.3974 43.9086L63.35 42.15ZM66.8 43.85L65.9542 45.6624L65.9738 45.6715L65.9935 45.6802L66.8 43.85ZM71.65 46.3L70.6144 48.011H70.6144L71.65 46.3ZM74.9 49.35L73.2696 50.5084L73.2696 50.5084L74.9 49.35ZM74.6 59.35L72.9632 58.2007L72.9549 58.2125L72.9468 58.2244L74.6 59.35ZM70 63.05L70.8065 64.8802L70.8136 64.877L70.8207 64.8738L70 63.05ZM63.1 62.35C59.8965 62.35 57.4394 61.635 55.5872 60.3547L53.3128 63.6453C55.9939 65.4984 59.3035 66.35 63.1 66.35V62.35ZM55.6148 60.3742C53.932 59.1686 53.1 57.5548 53.1 55.3H49.1C49.1 58.7785 50.5013 61.6314 53.2852 63.6258L55.6148 60.3742ZM53.1 55.3C53.1 55.1151 53.1228 54.7552 53.1878 54.1709L49.2122 53.7291C49.1438 54.3448 49.1 54.8849 49.1 55.3H53.1ZM51.2 55.95H58.35V51.95H51.2V55.95ZM56.359 53.7604C56.1781 55.6595 56.6844 57.4114 58.0094 58.7873L60.8906 56.0127C60.4822 55.5886 60.2552 55.0405 60.341 54.1396L56.359 53.7604ZM58.0358 58.8142C59.4234 60.2019 61.3034 60.75 63.35 60.75V56.75C61.9966 56.75 61.2766 56.3981 60.8642 55.9858L58.0358 58.8142ZM63.35 60.75C65.2986 60.75 67.0978 60.3519 68.523 59.3199L66.177 56.0801C65.6689 56.4481 64.8014 56.75 63.35 56.75V60.75ZM68.5327 59.3128C70.0899 58.1709 70.85 56.5145 70.85 54.6H66.85C66.85 55.3521 66.6101 55.7625 66.1673 56.0872L68.5327 59.3128ZM70.85 54.6C70.85 52.6978 70.0021 51.1152 68.4575 50.019L66.1425 53.281C66.6645 53.6515 66.85 54.0355 66.85 54.6H70.85ZM68.4827 50.0372C67.2862 49.1598 65.5253 48.2702 63.3172 47.353L61.7828 51.047C63.9081 51.9298 65.3138 52.6736 66.1173 53.2628L68.4827 50.0372ZM63.3192 47.3538C61.3573 46.5364 59.7967 45.8013 58.6174 45.1495L56.6826 48.6505C58.0366 49.3987 59.7427 50.197 61.7808 51.0462L63.3192 47.3538ZM58.6372 45.1606C57.6692 44.6112 56.8113 43.8429 56.0656 42.8211L52.8344 45.1789C53.8887 46.6237 55.1641 47.7888 56.6628 48.6394L58.6372 45.1606ZM56.1006 42.8706C55.5106 42.0083 55.15 40.8436 55.15 39.25H51.15C51.15 41.4564 51.656 43.4583 52.7994 45.1294L56.1006 42.8706ZM55.15 39.25C55.15 37.4391 55.6035 35.9616 56.4481 34.7331L53.1519 32.4669C51.7965 34.4384 51.15 36.7275 51.15 39.25H55.15ZM56.432 34.756C57.3422 33.4712 58.5838 32.4576 60.2181 31.725L58.5819 28.075C56.3495 29.0757 54.5245 30.5288 53.168 32.444L56.432 34.756ZM60.2065 31.7302C61.8809 30.9923 63.8328 30.6 66.1 30.6V26.6C63.3672 26.6 60.8524 27.0744 58.5935 28.0698L60.2065 31.7302ZM66.1 30.6C68.3453 30.6 70.1791 30.9795 71.6598 31.6649L73.3402 28.0351C71.2209 27.0539 68.788 26.6 66.1 26.6V30.6ZM71.7001 31.6831C73.209 32.3415 74.2288 33.2353 74.885 34.329L78.315 32.271C77.1712 30.3647 75.4577 28.9585 73.2999 28.0169L71.7001 31.6831ZM74.9019 34.3566C75.5848 35.4542 75.9138 36.7763 75.8044 38.417L79.7956 38.683C79.9529 36.3237 79.4818 34.1458 78.2981 32.2434L74.9019 34.3566ZM77.8 36.55H70.35V40.55H77.8V36.55ZM72.3418 38.7311L72.3918 38.1811L68.4082 37.8189L68.3582 38.3689L72.3418 38.7311ZM72.4 38C72.4 36.3165 71.7277 34.8533 70.4364 33.7686L67.8636 36.8314C68.239 37.1467 68.4 37.4835 68.4 38H72.4ZM70.467 33.7948C69.1844 32.6725 67.517 32.25 65.75 32.25V36.25C66.9163 36.25 67.5156 36.5275 67.833 36.8052L70.467 33.7948ZM65.75 32.25C63.8746 32.25 62.1453 32.6915 60.7412 33.7566L63.1588 36.9434C63.688 36.5419 64.492 36.25 65.75 36.25V32.25ZM60.7412 33.7566C59.2511 34.8871 58.5 36.4898 58.5 38.35H62.5C62.5 37.6769 62.7156 37.2796 63.1588 36.9434L60.7412 33.7566ZM58.5 38.35C58.5 39.6514 58.931 40.8418 59.7702 41.8383L62.8298 39.2617C62.6023 38.9915 62.5 38.7153 62.5 38.35H58.5ZM59.846 41.9232C60.5586 42.6778 61.3972 43.3263 62.3423 43.8776L64.3577 40.4224C63.7028 40.0404 63.1747 39.6222 62.754 39.1768L59.846 41.9232ZM62.3974 43.9086C63.2499 44.3703 64.4422 44.9567 65.9542 45.6624L67.6458 42.0376C66.1578 41.3433 65.0501 40.7963 64.3026 40.3914L62.3974 43.9086ZM65.9935 45.6802C67.9131 46.5261 69.4462 47.3039 70.6144 48.011L72.6856 44.589C71.3205 43.7627 69.6202 42.9072 67.6065 42.0198L65.9935 45.6802ZM70.6144 48.011C71.6356 48.6291 72.52 49.4534 73.2696 50.5084L76.5304 48.1916C75.48 46.7132 74.1977 45.5042 72.6856 44.589L70.6144 48.011ZM73.2696 50.5084C73.8883 51.3791 74.25 52.5051 74.25 54H78.25C78.25 51.8282 77.7117 49.8542 76.5304 48.1916L73.2696 50.5084ZM74.25 54C74.25 55.6082 73.8158 56.9864 72.9632 58.2007L76.2368 60.4993C77.5842 58.5803 78.25 56.3918 78.25 54H74.25ZM72.9468 58.2244C72.1188 59.4406 70.8965 60.4534 69.1793 61.2262L70.8207 64.8738C73.1035 63.8466 74.9479 62.3927 76.2532 60.4756L72.9468 58.2244ZM69.1935 61.2198C67.5314 61.9523 65.5166 62.35 63.1 62.35V66.35C65.95 66.35 68.5353 65.8811 70.8065 64.8802L69.1935 61.2198ZM105.868 38.8L104.489 40.2488L104.495 40.2547L104.501 40.2605L105.868 38.8ZM108.718 49.5L110.679 49.8922V49.8922L108.718 49.5ZM108.068 52.1V54.1H109.53L109.973 52.7064L108.068 52.1ZM87.8176 52.1V50.1H86.083L85.8377 51.8172L87.8176 52.1ZM89.2676 57.2L87.8534 58.6142L87.8769 58.6378L87.9013 58.6605L89.2676 57.2ZM96.9176 57.75L97.9466 59.465L97.9547 59.4601L97.9627 59.4552L96.9176 57.75ZM99.4176 55.3V53.3H98.3169L97.7279 54.2299L99.4176 55.3ZM106.968 55.3L108.783 56.1396L110.096 53.3H106.968V55.3ZM101.218 61.9L102.322 63.5674L102.327 63.5641L101.218 61.9ZM83.9676 61.45L82.5997 62.9091L83.9676 61.45ZM81.0676 50.15L83.0353 50.5078L83.0366 50.5007L83.0378 50.4936L81.0676 50.15ZM84.1176 42.6L82.4969 41.4281L82.4909 41.4364L82.485 41.4447L84.1176 42.6ZM89.9176 37.6L90.8223 39.3837V39.3837L89.9176 37.6ZM101.768 47.85V49.85H103.533L103.752 48.0981L101.768 47.85ZM100.318 42.95L101.631 41.4418L100.318 42.95ZM91.5176 43.3L92.7532 44.8726L92.7647 44.8636L92.776 44.8545L91.5176 43.3ZM88.5676 47.85L86.6483 47.2875L85.8972 49.85H88.5676V47.85ZM97.4676 37.85C100.616 37.85 102.878 38.7158 104.489 40.2488L107.246 37.3512C104.724 34.9509 101.385 33.85 97.4676 33.85V37.85ZM104.501 40.2605C106.096 41.7522 106.968 43.8032 106.968 46.65H110.968C110.968 42.8968 109.773 39.7145 107.234 37.3395L104.501 40.2605ZM106.968 46.65C106.968 47.6167 106.892 48.4314 106.756 49.1078L110.679 49.8922C110.877 48.902 110.968 47.8167 110.968 46.65H106.968ZM106.756 49.1078C106.567 50.0571 106.367 50.8489 106.162 51.4936L109.973 52.7064C110.235 51.8844 110.469 50.9429 110.679 49.8922L106.756 49.1078ZM108.068 50.1H87.8176V54.1H108.068V50.1ZM85.8377 51.8172C85.7842 52.1915 85.7676 52.6364 85.7676 53.1H89.7676C89.7676 52.6969 89.7843 52.4751 89.7975 52.3828L85.8377 51.8172ZM85.7676 53.1C85.7676 55.2365 86.397 57.1578 87.8534 58.6142L90.6818 55.7858C90.1382 55.2422 89.7676 54.4301 89.7676 53.1H85.7676ZM87.9013 58.6605C89.3698 60.0344 91.2397 60.65 93.3176 60.65V56.65C92.0621 56.65 91.232 56.299 90.6339 55.7395L87.9013 58.6605ZM93.3176 60.65C95.0071 60.65 96.5786 60.2858 97.9466 59.465L95.8886 56.035C95.2566 56.4142 94.4281 56.65 93.3176 56.65V60.65ZM97.9627 59.4552C99.2501 58.6661 100.306 57.6346 101.107 56.3701L97.7279 54.2299C97.2621 54.9654 96.6517 55.5672 95.8725 56.0448L97.9627 59.4552ZM99.4176 57.3H106.968V53.3H99.4176V57.3ZM105.152 54.4604C104.084 56.771 102.422 58.6935 100.108 60.2359L102.327 63.5641C105.213 61.6398 107.385 59.1624 108.783 56.1396L105.152 54.4604ZM100.113 60.2326C97.8944 61.7021 95.3667 62.45 92.4676 62.45V66.45C96.1018 66.45 99.4074 65.4979 102.322 63.5674L100.113 60.2326ZM92.4676 62.45C89.3304 62.45 87.0238 61.5737 85.3355 59.9909L82.5997 62.9091C85.178 65.3263 88.5381 66.45 92.4676 66.45V62.45ZM85.3355 59.9909C83.676 58.4352 82.7676 56.2853 82.7676 53.3H78.7676C78.7676 57.1814 79.9925 60.4648 82.5997 62.9091L85.3355 59.9909ZM82.7676 53.3C82.7676 52.4331 82.8543 51.5033 83.0353 50.5078L79.0998 49.7922C78.8808 50.9967 78.7676 52.1669 78.7676 53.3H82.7676ZM83.0378 50.4936C83.4918 47.8907 84.4041 45.6573 85.7501 43.7553L82.485 41.4447C80.7644 43.8761 79.6433 46.6759 79.0973 49.8064L83.0378 50.4936ZM85.7383 43.7719C87.1255 41.8534 88.8169 40.4009 90.8223 39.3837L89.0128 35.8163C86.4183 37.1324 84.243 39.0132 82.4969 41.4281L85.7383 43.7719ZM90.8223 39.3837C92.8252 38.3677 95.0293 37.85 97.4676 37.85V33.85C94.4392 33.85 91.61 34.499 89.0128 35.8163L90.8223 39.3837ZM103.752 48.0981C103.819 47.5604 103.868 47.0689 103.868 46.7H99.8676C99.8676 46.7977 99.8491 47.0729 99.783 47.6019L103.752 48.0981ZM103.868 46.7C103.868 44.6287 103.175 42.7867 101.631 41.4418L99.004 44.4582C99.5265 44.9133 99.8676 45.5713 99.8676 46.7H103.868ZM101.631 41.4418C100.159 40.1597 98.3081 39.6 96.2676 39.6V43.6C97.5604 43.6 98.4094 43.9403 99.004 44.4582L101.631 41.4418ZM96.2676 39.6C94.0331 39.6 92.0077 40.3301 90.2592 41.7455L92.776 44.8545C93.8275 44.0033 94.9687 43.6 96.2676 43.6V39.6ZM90.2819 41.7274C88.5123 43.1178 87.3161 45.0092 86.6483 47.2875L90.4868 48.4125C90.9524 46.8242 91.7229 45.6822 92.7532 44.8726L90.2819 41.7274ZM88.5676 49.85H101.768V45.85H88.5676V49.85ZM124.827 27L126.796 27.3486L127.212 25H124.827V27ZM118.277 64V66H119.954L120.246 64.3486L118.277 64ZM111.227 64L109.258 63.6514L108.842 66H111.227V64ZM117.777 27V25H116.1L115.808 26.6514L117.777 27ZM122.858 26.6514L116.308 63.6514L120.246 64.3486L126.796 27.3486L122.858 26.6514ZM118.277 62H111.227V66H118.277V62ZM113.196 64.3486L119.746 27.3486L115.808 26.6514L109.258 63.6514L113.196 64.3486ZM117.777 29H124.827V25H117.777V29ZM152.193 38.25L150.809 39.6934L150.824 39.7078L150.839 39.7219L152.193 38.25ZM154.443 47.75L152.479 47.3723L152.476 47.3854L152.474 47.3986L154.443 47.75ZM151.543 64V66H153.218L153.512 64.3514L151.543 64ZM144.593 64L142.623 63.6524L142.209 66H144.593V64ZM147.293 48.7L149.263 49.0476L149.264 49.0382L149.266 49.0288L147.293 48.7ZM146.093 43.15L144.679 44.5642L144.692 44.5776L144.706 44.5906L146.093 43.15ZM137.543 43.55L138.835 45.0768L138.838 45.0739L137.543 43.55ZM134.943 48.35L132.984 47.9458L132.978 47.9748L132.973 48.0039L134.943 48.35ZM132.193 64V66H133.872L134.163 64.3461L132.193 64ZM125.143 64L123.174 63.6516L122.758 66H125.143V64ZM130.043 36.3V34.3H128.366L128.074 35.9516L130.043 36.3ZM137.093 36.3L139.063 36.6476L139.477 34.3H137.093V36.3ZM136.493 39.7L134.523 39.3524L133.392 45.7622L137.928 41.0936L136.493 39.7ZM140.543 36.95L141.326 38.7903L141.343 38.7833L141.359 38.776L140.543 36.95ZM145.443 37.9C147.937 37.9 149.64 38.5724 150.809 39.6934L153.577 36.8066C151.479 34.7943 148.682 33.9 145.443 33.9V37.9ZM150.839 39.7219C151.99 40.7811 152.693 42.3842 152.693 44.85H156.693C156.693 41.5825 155.729 38.7856 153.547 36.7781L150.839 39.7219ZM152.693 44.85C152.693 45.8152 152.617 46.6527 152.479 47.3723L156.407 48.1277C156.602 47.114 156.693 46.0182 156.693 44.85H152.693ZM152.474 47.3986L149.574 63.6486L153.512 64.3514L156.412 48.1014L152.474 47.3986ZM151.543 62H144.593V66H151.543V62ZM146.563 64.3476L149.263 49.0476L145.323 48.3524L142.623 63.6524L146.563 64.3476ZM149.266 49.0288C149.383 48.328 149.443 47.6345 149.443 46.95H145.443C145.443 47.3988 145.403 47.872 145.32 48.3712L149.266 49.0288ZM149.443 46.95C149.443 44.9284 148.889 43.0664 147.48 41.7094L144.706 44.5906C145.096 44.9669 145.443 45.6383 145.443 46.95H149.443ZM147.507 41.7358C146.154 40.3823 144.324 39.85 142.343 39.85V43.85C143.628 43.85 144.299 44.1844 144.679 44.5642L147.507 41.7358ZM142.343 39.85C140.036 39.85 137.968 40.5639 136.248 42.0261L138.838 45.0739C139.785 44.2694 140.917 43.85 142.343 43.85V39.85ZM136.251 42.0232C134.529 43.4803 133.484 45.5232 132.984 47.9458L136.902 48.7542C137.268 46.9768 137.957 45.8197 138.835 45.0768L136.251 42.0232ZM132.973 48.0039L130.223 63.6539L134.163 64.3461L136.913 48.6961L132.973 48.0039ZM132.193 62H125.143V66H132.193V62ZM127.112 64.3484L132.012 36.6484L128.074 35.9516L123.174 63.6516L127.112 64.3484ZM130.043 38.3H137.093V34.3H130.043V38.3ZM135.123 35.9524L134.523 39.3524L138.463 40.0476L139.063 36.6476L135.123 35.9524ZM137.928 41.0936C138.867 40.1265 139.992 39.3578 141.326 38.7903L139.76 35.1097C137.96 35.8755 136.386 36.9401 135.058 38.3064L137.928 41.0936ZM141.359 38.776C142.671 38.1896 144.027 37.9 145.443 37.9V33.9C143.459 33.9 141.548 34.3104 139.727 35.124L141.359 38.776ZM167.75 36.3L169.714 35.9244L169.403 34.3H167.75V36.3ZM171.45 55.65L169.485 56.0256L170.521 61.4405L173.198 56.6213L171.45 55.65ZM182.2 36.3V34.3H181.023L180.451 35.3287L182.2 36.3ZM189.65 36.3L191.367 37.325L193.172 34.3H189.65V36.3ZM165.3 77.1V79.1H166.435L167.017 78.125L165.3 77.1ZM157.85 77.1L156.141 76.0601L154.291 79.1H157.85V77.1ZM166.25 63.3L167.958 64.3399L168.384 63.6399L168.196 62.8421L166.25 63.3ZM159.9 36.3V34.3H157.375L157.953 36.7579L159.9 36.3ZM165.785 36.6756L169.485 56.0256L173.414 55.2744L169.714 35.9244L165.785 36.6756ZM173.198 56.6213L183.948 37.2713L180.451 35.3287L169.701 54.6787L173.198 56.6213ZM182.2 38.3H189.65V34.3H182.2V38.3ZM187.932 35.275L163.582 76.075L167.017 78.125L191.367 37.325L187.932 35.275ZM165.3 75.1H157.85V79.1H165.3V75.1ZM159.558 78.1399L167.958 64.3399L164.541 62.2601L156.141 76.0601L159.558 78.1399ZM168.196 62.8421L161.846 35.8421L157.953 36.7579L164.303 63.7579L168.196 62.8421ZM159.9 38.3H167.75V34.3H159.9V38.3Z" fill="#FEB700"/>
</svg>
